<?xml version="1.0" encoding="UTF-8"?>
<!-- Generator: Adobe Illustrator 24.0.1, SVG Export Plug-In . SVG Version: 6.00 Build 0)  -->
<svg version="1.1" id="Layer_2" xmlns="http://www.w3.org/2000/svg" xmlns:xlink="http://www.w3.org/1999/xlink" x="0px" y="0px" viewBox="0 0 220 87" style="enable-background:new 0 0 220 87;" xml:space="preserve">
<style type="text/css">
	.st0{fill:#FFFFFF;}
</style>
<g>
	<path class="st0" d="M138.6,40.2L138.6,40.2c0-4-2.9-6.3-7.4-6.3h-7c-0.7,0-1.3,0.5-1.3,1.2v16.7h4.9v-4.5c0-0.3,0.3-0.6,0.6-0.6   h1.8l3.4,5.1h5.7l-4.1-6C137.3,44.7,138.6,42.8,138.6,40.2z M133.7,40.4c0,1.4-1.1,2.3-2.8,2.3h-3v-3.9c0-0.4,0.3-0.8,0.8-0.8h2.2   C132.6,38,133.7,38.8,133.7,40.4L133.7,40.4z"/>
	<path class="st0" d="M150.2,33.5c-5.5,0-9.6,4.2-9.6,9.3l0,0c0,5.1,4.1,9.2,9.6,9.2s9.6-4.2,9.6-9.3v-0.1   C159.8,37.6,155.7,33.5,150.2,33.5 M154.8,42.8c0,2.6-1.8,4.8-4.5,4.8s-4.6-2.2-4.6-4.8v-0.1c0-2.6,1.8-4.8,4.5-4.8   C152.9,38,154.8,40.2,154.8,42.8L154.8,42.8z"/>
	<path class="st0" d="M174.4,35v8.3l-7.3-9.4h-3.3c-0.7,0-1.3,0.6-1.3,1.3v16.6h4.9V42l7.6,9.8h4.3v-18h-3.6   C175,33.8,174.4,34.4,174.4,35"/>
	<path class="st0" d="M104.8,35.1v3.1h5.3v13.5h4.9V38.8c0-0.3,0.3-0.6,0.6-0.6h4.7v-4.3h-14.4C105.4,33.8,104.8,34.4,104.8,35.1"/>
	<path class="st0" d="M88.3,35.1v16.6h14.3v-4.2h-9.5v-2.1c0-0.3,0.3-0.7,0.6-0.7h7.7v-3.9h-8.3v-2c0-0.3,0.3-0.7,0.6-0.7h8.9v-4.2   h-13C88.9,33.8,88.3,34.4,88.3,35.1"/>
	<path class="st0" d="M211.1,40.6c-2.5-0.6-3.1-0.9-3.1-1.7v-0.1c0-0.6,0.6-1.1,1.8-1.1c1.1,0,2.3,0.3,3.4,0.8c0,0,0.3,0.1,0.4,0.2   c0.3,0.2,0.7,0.3,1.2,0.2c0.3-0.1,0.6-0.4,0.9-0.8l1.5-2.2c-1.9-1.6-4.3-2.4-7.3-2.4c-4.3,0-6.9,2.4-6.9,5.7l0,0   c0,3.7,2.9,4.7,6.7,5.6c2.4,0.6,3,1,3,1.7l0,0c0,0.8-0.7,1.2-2,1.2c-1.6,0-3.1-0.4-4.5-1.2c-0.4-0.2-0.9-0.5-1.5-0.3   c-0.3,0.1-0.5,0.2-0.7,0.5l-1.9,2.2c2.2,1.9,5.2,2.9,8.4,2.9c4.3,0,7.2-2.2,7.2-5.8l0,0C217.8,42.8,215.2,41.5,211.1,40.6"/>
	<path class="st0" d="M186.7,51.7l0.9-2.3c0.1-0.4,0.4-0.7,0.8-0.8h6.4l1.3,3.1h5.3l-7.5-17.8h-4c-0.6,0.1-0.8,0.4-1.1,0.8l-7.2,17   H186.7z M191.4,39.7l2,5.1h-4L191.4,39.7z"/>
	<path class="st0" d="M75.5,51.7c0-1.3,0-4.3,0-4.5s0.2-0.5,0.4-0.6c0.1,0,0.2,0,0.3,0c0.6,0,1.3,0,1.9,0c1.3,0,2.6-0.1,3.9-0.6   s2.5-1.3,3.3-2.5c0.7-1.2,1-2.6,0.9-4c-0.1-1-0.4-2-1-2.9c-1.2-1.8-3.4-2.6-5.6-2.8c-0.3,0-0.6,0-0.9,0c-0.8,0-1.7,0-2.5,0   c-1.2,0-2.3,0-3.5,0c-0.8,0-2.2,0-2.2,1.2c0,0.6,0,1.1,0,1.7v15C70.5,51.7,75.5,51.7,75.5,51.7z M81.3,40.4c0,1.4-1.1,2.3-2.8,2.3   h-3v-3.9c0-0.4,0.3-0.8,0.8-0.8h2.2C80.2,38,81.3,38.8,81.3,40.4L81.3,40.4z"/>
</g>
<g>
	<g>
		<path class="st0" d="M45.9,56.2c0,7.9-6.4,14.3-14.3,14.3s-14.3-6.4-14.3-14.3s6.4-14.3,14.3-14.3C39.4,41.8,45.9,48.3,45.9,56.2"/>
		<path class="st0" d="M49.9,36.5L68.1,5.1h-28c-7.8,0.2-9.8,1.7-12.8,6.9c0,0-18,31.1-18,31.2c-2.2,3.8-3.5,8.3-3.5,13    c0,9.4,5,17.6,12.5,22.1c3.9,2.3,8.4,3.7,13.3,3.7c14.2,0,25.8-11.5,25.8-25.8c0-4.9-1.4-9.4-3.7-13.3L49.9,36.5z M40.2,11.7h16.4    L46.1,29.9l-3.6-6.2l-6.7-11.5C36.9,11.8,38.2,11.7,40.2,11.7 M31.5,75.4c-4.7,0-9-1.7-12.4-4.5c-4.2-3.5-6.8-8.8-6.8-14.7    c0-3.6,1-6.9,2.6-9.7c0,0,16.5-28.6,16.6-28.7L38,28.9l0,0l0,0l10.1,17.5l0,0c1.7,2.9,2.6,6.2,2.6,9.7    C50.8,66.8,42.2,75.4,31.5,75.4"/>
	</g>
</g>
</svg>